<svg width="152" height="22" viewBox="0 0 152 22" fill="none" xmlns="http://www.w3.org/2000/svg">
<path d="M2.43792 21V2.09255C3.17833 2.00226 3.99097 1.93905 4.87585 1.90293C5.77878 1.84876 6.7088 1.82167 7.66592 1.82167C9.23702 1.82167 10.5734 2.07449 11.6749 2.58013C12.7765 3.06772 13.6163 3.74492 14.1941 4.61174C14.772 5.47855 15.061 6.47178 15.061 7.59142C15.061 8.94582 14.7269 10.0925 14.0587 11.0316C13.3905 11.9707 12.4605 12.693 11.2686 13.1986C10.0768 13.6862 8.69526 13.93 7.12415 13.93C6.36569 13.93 5.6614 13.9029 5.01129 13.8488V21H2.43792ZM7.44921 11.7901C9.05643 11.7901 10.3025 11.4289 11.1874 10.7065C12.0722 9.9842 12.5147 9.01806 12.5147 7.80813C12.5147 6.63431 12.0903 5.70429 11.2415 5.01806C10.3928 4.33183 9.18285 3.98871 7.61174 3.98871C7.12415 3.98871 6.66366 3.99774 6.23025 4.0158C5.79684 4.03386 5.39052 4.06095 5.01129 4.09706V11.6546C5.30023 11.6907 5.65237 11.7269 6.06772 11.763C6.48307 11.781 6.94357 11.7901 7.44921 11.7901ZM17.9067 21V6.91422H20.2633V9.97517C20.4981 9.37923 20.8141 8.82844 21.2114 8.3228C21.6087 7.7991 22.1053 7.38375 22.7013 7.07675C23.2972 6.75169 23.9925 6.58916 24.787 6.58916C25.0579 6.58916 25.3288 6.60722 25.5997 6.64334C25.8706 6.6614 26.0963 6.69752 26.2769 6.75169L25.5455 9.27088C25.2024 9.12641 24.7961 9.05418 24.3265 9.05418C23.6584 9.05418 23.0173 9.24379 22.4033 9.62302C21.8074 10.0023 21.3107 10.5892 20.9134 11.3837C20.5342 12.1783 20.3446 13.1896 20.3446 14.4176V21H17.9067ZM33.5403 21.3251C31.5177 21.3251 29.9105 20.684 28.7186 19.4018C27.5448 18.1016 26.9579 16.2867 26.9579 13.9571C26.9579 12.5485 27.2197 11.2935 27.7434 10.1919C28.2852 9.07223 29.0346 8.19639 29.9917 7.56433C30.9489 6.91422 32.0595 6.58916 33.3236 6.58916C34.678 6.58916 35.7976 6.88713 36.6825 7.48307C37.5854 8.06095 38.2626 8.8465 38.7141 9.83973C39.1656 10.833 39.3913 11.9255 39.3913 13.1174C39.3913 13.7494 39.3642 14.3634 39.31 14.9594H29.45C29.6125 16.2777 30.073 17.307 30.8315 18.0474C31.5899 18.7878 32.5922 19.158 33.8382 19.158C34.6509 19.158 35.3823 19.0767 36.0324 18.9142C36.6825 18.7336 37.3055 18.5079 37.9015 18.237L38.4703 20.3228C37.8202 20.6117 37.0888 20.8465 36.2762 21.0271C35.4635 21.2257 34.5516 21.3251 33.5403 21.3251ZM29.4229 12.9819H37.143C37.143 11.6095 36.7999 10.553 36.1136 9.81264C35.4274 9.07223 34.4793 8.70203 33.2694 8.70203C32.222 8.70203 31.3552 9.07223 30.6689 9.81264C29.9827 10.535 29.5674 11.5914 29.4229 12.9819ZM46.4327 21.3251C45.3672 21.3251 44.4011 21.1896 43.5343 20.9187C42.6855 20.6479 41.9812 20.2957 41.4214 19.8623L42.4508 17.8307C42.9203 18.228 43.5072 18.5621 44.2115 18.833C44.9338 19.0858 45.7013 19.2122 46.514 19.2122C47.5253 19.2122 48.2837 19.0497 48.7894 18.7246C49.3131 18.3815 49.5749 17.9481 49.5749 17.4244C49.5749 17.0451 49.4756 16.7111 49.2769 16.4221C49.0964 16.1332 48.7532 15.8533 48.2476 15.5824C47.742 15.2935 47.0106 14.9865 46.0535 14.6614C44.7352 14.2099 43.742 13.6772 43.0738 13.0632C42.4237 12.4312 42.0986 11.5643 42.0986 10.4628C42.0986 9.37923 42.5681 8.46727 43.5072 7.72686C44.4643 6.9684 45.7826 6.58916 47.462 6.58916C48.365 6.58916 49.1686 6.68849 49.8729 6.88713C50.5772 7.06772 51.2092 7.30248 51.769 7.59142L51.0918 9.59594C50.6043 9.307 50.0444 9.07223 49.4124 8.89165C48.7984 8.71106 48.1122 8.62077 47.3537 8.62077C46.4146 8.62077 45.7013 8.81038 45.2137 9.18962C44.7262 9.56885 44.4824 9.9842 44.4824 10.4357C44.4824 10.8691 44.672 11.2393 45.0512 11.5463C45.4304 11.8533 46.1709 12.1874 47.2724 12.5485C49.0602 13.1445 50.3063 13.8036 51.0106 14.526C51.7149 15.2483 52.067 16.1512 52.067 17.2348C52.067 18.4989 51.5523 19.5011 50.523 20.2415C49.5117 20.9639 48.1483 21.3251 46.4327 21.3251ZM60.9999 21.3251C59.6636 21.3251 58.4898 21.0181 57.4785 20.4041C56.4853 19.772 55.7178 18.9052 55.176 17.8036C54.6342 16.684 54.3634 15.4018 54.3634 13.9571C54.3634 12.6027 54.6342 11.3657 55.176 10.246C55.7358 9.12641 56.5304 8.24153 57.5598 7.59142C58.5891 6.92325 59.799 6.58916 61.1895 6.58916C61.9841 6.58916 62.6794 6.6614 63.2753 6.80587C63.8893 6.95034 64.4762 7.15801 65.0361 7.42889L64.3047 9.48758C63.799 9.23476 63.3114 9.05418 62.8419 8.94582C62.3905 8.81941 61.8848 8.75621 61.325 8.75621C60.0609 8.75621 58.9954 9.2167 58.1286 10.1377C57.2798 11.0406 56.8555 12.2957 56.8555 13.9029C56.8555 14.8781 57.036 15.763 57.3972 16.5576C57.7584 17.3521 58.255 17.9842 58.8871 18.4537C59.5372 18.9233 60.2956 19.158 61.1625 19.158C61.8487 19.158 62.4356 19.0858 62.9232 18.9413C63.4108 18.7788 63.9345 18.553 64.4943 18.2641L65.2528 20.3228C64.6929 20.6298 64.0609 20.8736 63.3566 21.0542C62.6704 21.2348 61.8848 21.3251 60.9999 21.3251ZM68.0883 21V6.91422H70.445V9.97517C70.6797 9.37923 70.9958 8.82844 71.3931 8.3228C71.7904 7.7991 72.287 7.38375 72.8829 7.07675C73.4788 6.75169 74.1741 6.58916 74.9687 6.58916C75.2396 6.58916 75.5104 6.60722 75.7813 6.64334C76.0522 6.6614 76.2779 6.69752 76.4585 6.75169L75.7271 9.27088C75.384 9.12641 74.9777 9.05418 74.5082 9.05418C73.84 9.05418 73.1989 9.24379 72.5849 9.62302C71.989 10.0023 71.4924 10.5892 71.0951 11.3837C70.7159 12.1783 70.5262 13.1896 70.5262 14.4176V21H68.0883ZM78.9077 21V6.91422H81.3456V21H78.9077ZM80.1266 4.50338C79.6571 4.50338 79.2508 4.33183 78.9077 3.98871C78.5826 3.6456 78.4201 3.24831 78.4201 2.79684C78.4201 2.27314 78.5736 1.85779 78.8806 1.55079C79.1876 1.24379 79.6029 1.09029 80.1266 1.09029C80.5962 1.09029 80.9934 1.26185 81.3185 1.60496C81.6616 1.93002 81.8332 2.32731 81.8332 2.79684C81.8332 3.30248 81.6797 3.71783 81.3727 4.04289C81.0657 4.34989 80.6503 4.50338 80.1266 4.50338ZM92.0183 21.3251C91.2056 21.3251 90.4381 21.1806 89.7158 20.8916C89.0115 20.5847 88.4246 20.2325 87.9551 19.8352V21H85.6797V0.954852H88.1176V8.37697C88.4788 7.96162 89.0025 7.56433 89.6887 7.1851C90.393 6.78781 91.2237 6.58916 92.1808 6.58916C93.2643 6.58916 94.2756 6.8781 95.2147 7.45598C96.1718 8.0158 96.9393 8.83747 97.5172 9.92099C98.095 10.9865 98.384 12.2867 98.384 13.8217C98.384 14.9413 98.2034 15.9616 97.8422 16.8826C97.481 17.8036 96.9934 18.5982 96.3795 19.2664C95.7835 19.9165 95.1063 20.4221 94.3478 20.7833C93.5894 21.1445 92.8129 21.3251 92.0183 21.3251ZM91.3682 19.158C92.253 19.158 93.0296 18.9413 93.6977 18.5079C94.384 18.0745 94.9167 17.4605 95.2959 16.6659C95.6932 15.8713 95.8919 14.9503 95.8919 13.9029C95.8919 12.8194 95.6932 11.8894 95.2959 11.1129C94.9167 10.3363 94.402 9.74041 93.7519 9.32506C93.1199 8.90971 92.4156 8.70203 91.639 8.70203C90.8625 8.70203 90.1582 8.90068 89.5262 9.29797C88.9122 9.6772 88.4427 10.0925 88.1176 10.544V18.0745C88.533 18.3995 89.0205 18.6614 89.5804 18.86C90.1402 19.0587 90.7361 19.158 91.3682 19.158ZM107.398 21.3251C105.375 21.3251 103.768 20.684 102.576 19.4018C101.402 18.1016 100.815 16.2867 100.815 13.9571C100.815 12.5485 101.077 11.2935 101.601 10.1919C102.142 9.07223 102.892 8.19639 103.849 7.56433C104.806 6.91422 105.917 6.58916 107.181 6.58916C108.535 6.58916 109.655 6.88713 110.54 7.48307C111.443 8.06095 112.12 8.8465 112.571 9.83973C113.023 10.833 113.249 11.9255 113.249 13.1174C113.249 13.7494 113.221 14.3634 113.167 14.9594H103.307C103.47 16.2777 103.93 17.307 104.689 18.0474C105.447 18.7878 106.449 19.158 107.695 19.158C108.508 19.158 109.239 19.0767 109.89 18.9142C110.54 18.7336 111.163 18.5079 111.759 18.237L112.328 20.3228C111.677 20.6117 110.946 20.8465 110.133 21.0271C109.321 21.2257 108.409 21.3251 107.398 21.3251ZM103.28 12.9819H111C111 11.6095 110.657 10.553 109.971 9.81264C109.285 9.07223 108.337 8.70203 107.127 8.70203C106.079 8.70203 105.212 9.07223 104.526 9.81264C103.84 10.535 103.425 11.5914 103.28 12.9819ZM116.768 21V2.03837H120.371L125.626 14.0384L130.8 2.03837H134.484V21H131.911V5.31602L126.845 16.7201H124.299L119.206 5.31602V21H116.768ZM139.359 21V2.03837H150.736V4.25959H141.933V10.0293H149.518V12.1964H141.933V18.7788H150.736V21H139.359Z" fill="black"/>
</svg>
