<svg width="54" height="62" viewBox="0 0 54 62" fill="none" xmlns="http://www.w3.org/2000/svg">
<path d="M3.47593 19.1502L6.35433 20.7912L26.6265 8.64755C25.0893 7.68036 21.9915 5.7871 21.8977 5.95158L11.1602 12.3616L1.41992 17.978L3.47593 19.1502Z" fill="#089226"/>
<path d="M35.4051 13.5281L32.5364 11.8701L12.1928 23.8939C13.7243 24.8701 16.8109 26.7816 16.9056 26.6177L27.6808 20.2712L37.4541 14.7124L35.4051 13.5281Z" fill="#089226"/>
<path d="M30.1884 25.3215L27.2064 27.0701L27.2698 51.0966C28.9431 50.2076 32.2654 48.3884 32.1688 48.2238L32.1549 35.5086L32.3184 24.0724L30.1884 25.3215Z" fill="#D92231"/>
<path d="M40.3983 19.709L37.4163 21.4577L37.4798 45.4842C39.153 44.5952 42.4753 42.776 42.3788 42.6113L42.3648 29.8962L42.5283 18.46L40.3983 19.709Z" fill="#D92231"/>
<path d="M0.740822 26.6036L0.681488 30.0526L22.134 42.4966C22.2494 40.6093 22.4306 36.8339 22.2314 36.8305L10.8891 30.2282L0.783203 24.14L0.740822 26.6036Z" fill="#1C62DD"/>
<path d="M0.267189 38.437L0.207855 41.8859L21.6603 54.33C21.7758 52.4427 21.957 48.6673 21.7578 48.6638L10.4155 42.0615L0.30957 35.9734L0.267189 38.437Z" fill="#1C62DD"/>
</svg>
