<svg width="199" height="43" viewBox="0 0 199 43" fill="none" xmlns="http://www.w3.org/2000/svg">
<path d="M49.4379 34V15.0925C50.1783 15.0023 50.991 14.9391 51.8758 14.9029C52.7788 14.8488 53.7088 14.8217 54.6659 14.8217C56.237 14.8217 57.5734 15.0745 58.6749 15.5801C59.7765 16.0677 60.6163 16.7449 61.1941 17.6117C61.772 18.4786 62.061 19.4718 62.061 20.5914C62.061 21.9458 61.7269 23.0925 61.0587 24.0316C60.3905 24.9707 59.4605 25.693 58.2686 26.1986C57.0768 26.6862 55.6953 26.93 54.1242 26.93C53.3657 26.93 52.6614 26.9029 52.0113 26.8488V34H49.4379ZM54.4492 24.7901C56.0564 24.7901 57.3025 24.4289 58.1874 23.7065C59.0722 22.9842 59.5147 22.0181 59.5147 20.8081C59.5147 19.6343 59.0903 18.7043 58.2415 18.0181C57.3928 17.3318 56.1828 16.9887 54.6117 16.9887C54.1242 16.9887 53.6637 16.9977 53.2302 17.0158C52.7968 17.0339 52.3905 17.0609 52.0113 17.0971V24.6546C52.3002 24.6907 52.6524 24.7269 53.0677 24.763C53.4831 24.781 53.9436 24.7901 54.4492 24.7901ZM64.9067 34V19.9142H67.2633V22.9752C67.4981 22.3792 67.8141 21.8284 68.2114 21.3228C68.6087 20.7991 69.1053 20.3837 69.7013 20.0767C70.2972 19.7517 70.9925 19.5892 71.787 19.5892C72.0579 19.5892 72.3288 19.6072 72.5997 19.6433C72.8706 19.6614 73.0963 19.6975 73.2769 19.7517L72.5455 22.2709C72.2024 22.1264 71.7961 22.0542 71.3265 22.0542C70.6584 22.0542 70.0173 22.2438 69.4033 22.623C68.8074 23.0023 68.3107 23.5892 67.9134 24.3837C67.5342 25.1783 67.3446 26.1896 67.3446 27.4176V34H64.9067ZM80.5403 34.3251C78.5177 34.3251 76.9105 33.684 75.7186 32.4018C74.5448 31.1016 73.9579 29.2867 73.9579 26.9571C73.9579 25.5485 74.2197 24.2935 74.7434 23.1919C75.2852 22.0722 76.0346 21.1964 76.9917 20.5643C77.9489 19.9142 79.0595 19.5892 80.3236 19.5892C81.678 19.5892 82.7976 19.8871 83.6825 20.4831C84.5854 21.0609 85.2626 21.8465 85.7141 22.8397C86.1656 23.833 86.3913 24.9255 86.3913 26.1174C86.3913 26.7494 86.3642 27.3634 86.31 27.9594H76.45C76.6125 29.2777 77.073 30.307 77.8315 31.0474C78.5899 31.7878 79.5922 32.158 80.8382 32.158C81.6509 32.158 82.3823 32.0767 83.0324 31.9142C83.6825 31.7336 84.3055 31.5079 84.9015 31.237L85.4703 33.3228C84.8202 33.6117 84.0888 33.8465 83.2762 34.0271C82.4635 34.2257 81.5516 34.3251 80.5403 34.3251ZM76.4229 25.9819H84.143C84.143 24.6095 83.7999 23.553 83.1136 22.8126C82.4274 22.0722 81.4793 21.702 80.2694 21.702C79.222 21.702 78.3552 22.0722 77.6689 22.8126C76.9827 23.535 76.5674 24.5914 76.4229 25.9819ZM93.4327 34.3251C92.3672 34.3251 91.4011 34.1896 90.5343 33.9187C89.6855 33.6479 88.9812 33.2957 88.4214 32.8623L89.4508 30.8307C89.9203 31.228 90.5072 31.5621 91.2115 31.833C91.9338 32.0858 92.7013 32.2122 93.514 32.2122C94.5253 32.2122 95.2837 32.0497 95.7894 31.7246C96.3131 31.3815 96.5749 30.9481 96.5749 30.4244C96.5749 30.0451 96.4756 29.7111 96.2769 29.4221C96.0964 29.1332 95.7532 28.8533 95.2476 28.5824C94.742 28.2935 94.0106 27.9865 93.0535 27.6614C91.7352 27.2099 90.742 26.6772 90.0738 26.0632C89.4237 25.4312 89.0986 24.5643 89.0986 23.4628C89.0986 22.3792 89.5681 21.4673 90.5072 20.7269C91.4643 19.9684 92.7826 19.5892 94.462 19.5892C95.365 19.5892 96.1686 19.6885 96.8729 19.8871C97.5772 20.0677 98.2092 20.3025 98.769 20.5914L98.0918 22.5959C97.6043 22.307 97.0444 22.0722 96.4124 21.8916C95.7984 21.7111 95.1122 21.6208 94.3537 21.6208C93.4146 21.6208 92.7013 21.8104 92.2137 22.1896C91.7262 22.5688 91.4824 22.9842 91.4824 23.4357C91.4824 23.8691 91.672 24.2393 92.0512 24.5463C92.4304 24.8533 93.1709 25.1874 94.2724 25.5485C96.0602 26.1445 97.3063 26.8036 98.0106 27.526C98.7149 28.2483 99.067 29.1512 99.067 30.2348C99.067 31.4989 98.5523 32.5011 97.523 33.2415C96.5117 33.9639 95.1483 34.3251 93.4327 34.3251ZM108 34.3251C106.664 34.3251 105.49 34.0181 104.478 33.4041C103.485 32.772 102.718 31.9052 102.176 30.8036C101.634 29.684 101.363 28.4018 101.363 26.9571C101.363 25.6027 101.634 24.3657 102.176 23.246C102.736 22.1264 103.53 21.2415 104.56 20.5914C105.589 19.9232 106.799 19.5892 108.19 19.5892C108.984 19.5892 109.679 19.6614 110.275 19.8059C110.889 19.9503 111.476 20.158 112.036 20.4289L111.305 22.4876C110.799 22.2348 110.311 22.0542 109.842 21.9458C109.39 21.8194 108.885 21.7562 108.325 21.7562C107.061 21.7562 105.995 22.2167 105.129 23.1377C104.28 24.0406 103.855 25.2957 103.855 26.9029C103.855 27.8781 104.036 28.763 104.397 29.5576C104.758 30.3521 105.255 30.9842 105.887 31.4537C106.537 31.9233 107.296 32.158 108.162 32.158C108.849 32.158 109.436 32.0858 109.923 31.9413C110.411 31.7788 110.934 31.553 111.494 31.2641L112.253 33.3228C111.693 33.6298 111.061 33.8736 110.357 34.0542C109.67 34.2348 108.885 34.3251 108 34.3251ZM115.088 34V19.9142H117.445V22.9752C117.68 22.3792 117.996 21.8284 118.393 21.3228C118.79 20.7991 119.287 20.3837 119.883 20.0767C120.479 19.7517 121.174 19.5892 121.969 19.5892C122.24 19.5892 122.51 19.6072 122.781 19.6433C123.052 19.6614 123.278 19.6975 123.459 19.7517L122.727 22.2709C122.384 22.1264 121.978 22.0542 121.508 22.0542C120.84 22.0542 120.199 22.2438 119.585 22.623C118.989 23.0023 118.492 23.5892 118.095 24.3837C117.716 25.1783 117.526 26.1896 117.526 27.4176V34H115.088ZM125.908 34V19.9142H128.346V34H125.908ZM127.127 17.5034C126.657 17.5034 126.251 17.3318 125.908 16.9887C125.583 16.6456 125.42 16.2483 125.42 15.7968C125.42 15.2731 125.574 14.8578 125.881 14.5508C126.188 14.2438 126.603 14.0903 127.127 14.0903C127.596 14.0903 127.993 14.2618 128.319 14.605C128.662 14.93 128.833 15.3273 128.833 15.7968C128.833 16.3025 128.68 16.7178 128.373 17.0429C128.066 17.3499 127.65 17.5034 127.127 17.5034ZM139.018 34.3251C138.206 34.3251 137.438 34.1806 136.716 33.8916C136.012 33.5847 135.425 33.2325 134.955 32.8352V34H132.68V13.9549H135.118V21.377C135.479 20.9616 136.002 20.5643 136.689 20.1851C137.393 19.7878 138.224 19.5892 139.181 19.5892C140.264 19.5892 141.276 19.8781 142.215 20.456C143.172 21.0158 143.939 21.8375 144.517 22.921C145.095 23.9865 145.384 25.2867 145.384 26.8217C145.384 27.9413 145.203 28.9616 144.842 29.8826C144.481 30.8036 143.993 31.5982 143.379 32.2664C142.784 32.9165 142.106 33.4221 141.348 33.7833C140.589 34.1445 139.813 34.3251 139.018 34.3251ZM138.368 32.158C139.253 32.158 140.03 31.9413 140.698 31.5079C141.384 31.0745 141.917 30.4605 142.296 29.6659C142.693 28.8713 142.892 27.9503 142.892 26.9029C142.892 25.8194 142.693 24.8894 142.296 24.1129C141.917 23.3363 141.402 22.7404 140.752 22.3251C140.12 21.9097 139.416 21.702 138.639 21.702C137.863 21.702 137.158 21.9007 136.526 22.298C135.912 22.6772 135.443 23.0925 135.118 23.544V31.0745C135.533 31.3995 136.021 31.6614 136.58 31.86C137.14 32.0587 137.736 32.158 138.368 32.158ZM154.398 34.3251C152.375 34.3251 150.768 33.684 149.576 32.4018C148.402 31.1016 147.815 29.2867 147.815 26.9571C147.815 25.5485 148.077 24.2935 148.601 23.1919C149.142 22.0722 149.892 21.1964 150.849 20.5643C151.806 19.9142 152.917 19.5892 154.181 19.5892C155.535 19.5892 156.655 19.8871 157.54 20.4831C158.443 21.0609 159.12 21.8465 159.571 22.8397C160.023 23.833 160.249 24.9255 160.249 26.1174C160.249 26.7494 160.221 27.3634 160.167 27.9594H150.307C150.47 29.2777 150.93 30.307 151.689 31.0474C152.447 31.7878 153.449 32.158 154.695 32.158C155.508 32.158 156.239 32.0767 156.89 31.9142C157.54 31.7336 158.163 31.5079 158.759 31.237L159.328 33.3228C158.677 33.6117 157.946 33.8465 157.133 34.0271C156.321 34.2257 155.409 34.3251 154.398 34.3251ZM150.28 25.9819H158C158 24.6095 157.657 23.553 156.971 22.8126C156.285 22.0722 155.337 21.702 154.127 21.702C153.079 21.702 152.212 22.0722 151.526 22.8126C150.84 23.535 150.425 24.5914 150.28 25.9819ZM163.768 34V15.0384H167.371L172.626 27.0384L177.8 15.0384H181.484V34H178.911V18.316L173.845 29.7201H171.299L166.206 18.316V34H163.768ZM186.359 34V15.0384H197.736V17.2596H188.933V23.0293H196.518V25.1964H188.933V31.7788H197.736V34H186.359Z" fill="white"/>
<rect y="2" width="42" height="41" rx="10" fill="white"/>
<path d="M7.6118 14.3851L9.77399 15.6178L25.0019 6.49582C23.8472 5.76929 21.5202 4.34712 21.4498 4.47067L13.384 9.28571L6.06738 13.5046L7.6118 14.3851Z" fill="#089226"/>
<path d="M31.5956 10.162L29.4407 8.91659L14.1592 17.9485C15.3095 18.6819 17.6281 20.1177 17.6993 19.9946L25.7933 15.2273L33.1348 11.0516L31.5956 10.162Z" fill="#089226"/>
<path d="M27.6764 19.0209L25.4364 20.3345L25.484 38.3826C26.7409 37.7148 29.2366 36.3483 29.164 36.2246L29.1535 26.6733L29.2764 18.0826L27.6764 19.0209Z" fill="#D92231"/>
<path d="M35.3463 14.805L33.1063 16.1185L33.154 34.1667C34.4108 33.4988 36.9065 32.1323 36.8339 32.0086L36.8235 22.4573L36.9463 13.8667L35.3463 14.805Z" fill="#D92231"/>
<path d="M5.55703 19.9839L5.51246 22.5747L21.627 31.9223C21.7138 30.5046 21.8499 27.6686 21.7002 27.666L13.1802 22.7066L5.58887 18.1333L5.55703 19.9839Z" fill="#1C62DD"/>
<path d="M5.20059 28.8729L5.15602 31.4637L21.2706 40.8114C21.3573 39.3937 21.4934 36.5577 21.3438 36.5551L12.8237 31.5956L5.23242 27.0223L5.20059 28.8729Z" fill="#1C62DD"/>
</svg>
